<svg width="720" height="452" viewBox="0 0 720 452" fill="none" xmlns="http://www.w3.org/2000/svg">
<g clip-path="url(#clip0_262_6348)">
<path d="M-388.857 335.741L236.4 905.521" stroke="#E6E2E0"/>
<path d="M44.3389 -59.0182L669.595 510.761" stroke="#E6E2E0"/>
<path d="M-172.258 138.362L452.999 708.142" stroke="#E6E2E0"/>
<path d="M260.936 -256.398L886.192 313.381" stroke="#E6E2E0"/>
<path d="M-280.558 237.053L344.699 806.832" stroke="#E6E2E0"/>
<path d="M152.637 -157.708L777.893 412.071" stroke="#E6E2E0"/>
<path d="M-63.9595 39.6728L561.297 609.452" stroke="#E6E2E0"/>
<path d="M369.235 -355.087L994.491 214.693" stroke="#E6E2E0"/>
<path d="M-334.706 286.397L290.55 856.177" stroke="#E6E2E0"/>
<path d="M98.4883 -108.363L723.745 461.416" stroke="#E6E2E0"/>
<path d="M-118.109 89.0177L507.148 658.797" stroke="#E6E2E0"/>
<path d="M315.085 -305.742L940.341 264.038" stroke="#E6E2E0"/>
<path d="M-226.407 187.707L398.849 757.487" stroke="#E6E2E0"/>
<path d="M206.786 -207.053L832.043 362.727" stroke="#E6E2E0"/>
<path d="M-9.81055 -9.67328L615.446 560.106" stroke="#E6E2E0"/>
<path d="M423.384 -404.432L1048.64 165.348" stroke="#E6E2E0"/>
<path d="M-361.782 311.071L263.474 880.85" stroke="#E6E2E0"/>
<path d="M71.4131 -83.6903L696.67 486.089" stroke="#E6E2E0"/>
<path d="M-145.184 113.69L480.073 683.47" stroke="#E6E2E0"/>
<path d="M288.011 -281.07L913.267 288.71" stroke="#E6E2E0"/>
<path d="M-253.482 212.38L371.775 782.159" stroke="#E6E2E0"/>
<path d="M179.712 -182.381L804.968 387.399" stroke="#E6E2E0"/>
<path d="M-36.8848 15.0002L588.372 584.78" stroke="#E6E2E0"/>
<path d="M396.31 -379.759L1021.57 190.02" stroke="#E6E2E0"/>
<path d="M-307.632 261.725L317.625 831.504" stroke="#E6E2E0"/>
<path d="M125.562 -133.036L750.819 436.744" stroke="#E6E2E0"/>
<path d="M-91.0342 64.3452L534.222 634.125" stroke="#E6E2E0"/>
<path d="M342.16 -330.414L967.417 239.365" stroke="#E6E2E0"/>
<path d="M-199.333 163.035L425.923 732.815" stroke="#E6E2E0"/>
<path d="M233.861 -231.726L859.118 338.054" stroke="#E6E2E0"/>
<path d="M17.2637 -34.3458L642.52 535.434" stroke="#E6E2E0"/>
<path d="M450.459 -429.104L1075.72 140.676" stroke="#E6E2E0"/>
<path d="M-375.32 323.407L249.937 893.187" stroke="#E6E2E0"/>
<path d="M57.876 -71.3549L683.132 498.425" stroke="#E6E2E0"/>
<path d="M-158.721 126.027L466.535 695.806" stroke="#E6E2E0"/>
<path d="M274.474 -268.734L899.73 301.045" stroke="#E6E2E0"/>
<path d="M-267.02 224.716L358.236 794.496" stroke="#E6E2E0"/>
<path d="M166.175 -170.044L791.431 399.736" stroke="#E6E2E0"/>
<path d="M-50.4219 27.3363L574.835 597.116" stroke="#E6E2E0"/>
<path d="M382.773 -367.423L1008.03 202.357" stroke="#E6E2E0"/>
<path d="M-321.169 274.061L304.087 843.841" stroke="#E6E2E0"/>
<path d="M112.025 -120.7L737.282 449.08" stroke="#E6E2E0"/>
<path d="M-104.571 76.6811L520.685 646.461" stroke="#E6E2E0"/>
<path d="M328.624 -318.078L953.88 251.701" stroke="#E6E2E0"/>
<path d="M-212.87 175.371L412.386 745.151" stroke="#E6E2E0"/>
<path d="M220.324 -219.389L845.581 350.39" stroke="#E6E2E0"/>
<path d="M3.72656 -22.0088L628.983 547.771" stroke="#E6E2E0"/>
<path d="M436.921 -416.768L1062.18 153.012" stroke="#E6E2E0"/>
<path d="M-348.244 298.734L277.013 868.513" stroke="#E6E2E0"/>
<path d="M84.9502 -96.0274L710.207 473.752" stroke="#E6E2E0"/>
<path d="M-131.646 101.353L493.611 671.133" stroke="#E6E2E0"/>
<path d="M301.548 -293.407L926.804 276.373" stroke="#E6E2E0"/>
<path d="M-239.946 200.044L385.311 769.824" stroke="#E6E2E0"/>
<path d="M193.249 -194.716L818.506 375.064" stroke="#E6E2E0"/>
<path d="M-23.3472 2.66379L601.909 572.444" stroke="#E6E2E0"/>
<path d="M409.847 -392.096L1035.1 177.684" stroke="#E6E2E0"/>
<path d="M-294.094 249.389L331.162 819.168" stroke="#E6E2E0"/>
<path d="M139.1 -145.372L764.356 424.407" stroke="#E6E2E0"/>
<path d="M-77.4966 52.0086L547.76 621.788" stroke="#E6E2E0"/>
<path d="M355.697 -342.751L980.954 227.029" stroke="#E6E2E0"/>
<path d="M-185.795 150.699L439.461 720.478" stroke="#E6E2E0"/>
<path d="M247.398 -244.062L872.655 325.718" stroke="#E6E2E0"/>
<path d="M30.8008 -46.6818L656.057 523.098" stroke="#E6E2E0"/>
<path d="M463.997 -441.441L1089.25 128.339" stroke="#E6E2E0"/>
<path d="M-382.088 329.575L243.168 899.355" stroke="#E6E2E0"/>
<path d="M51.1069 -65.1858L676.363 504.594" stroke="#E6E2E0"/>
<path d="M-165.489 132.194L459.767 701.974" stroke="#E6E2E0"/>
<path d="M267.705 -262.566L892.961 307.213" stroke="#E6E2E0"/>
<path d="M-273.789 230.884L351.468 800.664" stroke="#E6E2E0"/>
<path d="M159.406 -163.876L784.662 405.904" stroke="#E6E2E0"/>
<path d="M-57.1909 33.5047L568.066 603.284" stroke="#E6E2E0"/>
<path d="M376.003 -361.255L1001.26 208.524" stroke="#E6E2E0"/>
<path d="M-327.937 280.229L297.319 850.008" stroke="#E6E2E0"/>
<path d="M105.256 -114.531L730.513 455.249" stroke="#E6E2E0"/>
<path d="M-111.34 82.8492L513.917 652.629" stroke="#E6E2E0"/>
<path d="M321.854 -311.911L947.111 257.869" stroke="#E6E2E0"/>
<path d="M-219.64 181.54L405.617 751.319" stroke="#E6E2E0"/>
<path d="M213.555 -213.221L838.812 356.559" stroke="#E6E2E0"/>
<path d="M-3.04297 -15.8407L622.214 553.939" stroke="#E6E2E0"/>
<path d="M430.153 -410.6L1055.41 159.18" stroke="#E6E2E0"/>
<path d="M-355.012 304.902L270.244 874.681" stroke="#E6E2E0"/>
<path d="M78.1821 -89.8583L703.439 479.921" stroke="#E6E2E0"/>
<path d="M-138.415 107.522L486.842 677.301" stroke="#E6E2E0"/>
<path d="M294.779 -287.239L920.035 282.541" stroke="#E6E2E0"/>
<path d="M-246.713 206.212L378.543 775.991" stroke="#E6E2E0"/>
<path d="M186.481 -188.549L811.737 381.231" stroke="#E6E2E0"/>
<path d="M-30.1152 8.83121L595.141 578.611" stroke="#E6E2E0"/>
<path d="M403.078 -385.928L1028.33 183.852" stroke="#E6E2E0"/>
<path d="M-300.864 255.557L324.393 825.337" stroke="#E6E2E0"/>
<path d="M132.332 -139.204L757.588 430.576" stroke="#E6E2E0"/>
<path d="M-84.2651 58.1768L540.991 627.956" stroke="#E6E2E0"/>
<path d="M348.928 -336.583L974.185 233.197" stroke="#E6E2E0"/>
<path d="M-192.564 156.867L432.693 726.646" stroke="#E6E2E0"/>
<path d="M240.63 -237.894L865.887 331.886" stroke="#E6E2E0"/>
<path d="M24.0327 -40.5138L649.289 529.266" stroke="#E6E2E0"/>
<path d="M457.227 -435.272L1082.48 134.507" stroke="#E6E2E0"/>
<path d="M-368.551 317.239L256.706 887.018" stroke="#E6E2E0"/>
<path d="M64.644 -77.5224L689.901 492.257" stroke="#E6E2E0"/>
<path d="M-151.952 119.858L473.304 689.638" stroke="#E6E2E0"/>
<path d="M281.242 -274.902L906.498 294.878" stroke="#E6E2E0"/>
<path d="M-260.25 218.548L365.006 788.327" stroke="#E6E2E0"/>
<path d="M172.943 -176.213L798.199 393.567" stroke="#E6E2E0"/>
<path d="M-43.6528 21.1677L581.604 590.947" stroke="#E6E2E0"/>
<path d="M389.541 -373.591L1014.8 196.188" stroke="#E6E2E0"/>
<path d="M-314.401 267.893L310.856 837.673" stroke="#E6E2E0"/>
<path d="M118.793 -126.868L744.05 442.912" stroke="#E6E2E0"/>
<path d="M-97.8032 70.5138L527.453 640.294" stroke="#E6E2E0"/>
<path d="M335.391 -324.246L960.648 245.533" stroke="#E6E2E0"/>
<path d="M-206.102 169.203L419.155 738.983" stroke="#E6E2E0"/>
<path d="M227.092 -225.558L852.349 344.222" stroke="#E6E2E0"/>
<path d="M10.4956 -28.1772L635.752 541.603" stroke="#E6E2E0"/>
<path d="M443.69 -422.936L1068.95 146.844" stroke="#E6E2E0"/>
<path d="M-341.475 292.565L283.782 862.345" stroke="#E6E2E0"/>
<path d="M91.7192 -102.195L716.976 467.584" stroke="#E6E2E0"/>
<path d="M-124.877 95.1856L500.379 664.965" stroke="#E6E2E0"/>
<path d="M308.317 -299.575L933.573 270.205" stroke="#E6E2E0"/>
<path d="M-233.177 193.876L392.08 763.655" stroke="#E6E2E0"/>
<path d="M200.018 -200.884L825.275 368.895" stroke="#E6E2E0"/>
<path d="M-16.5786 -3.50421L608.678 566.276" stroke="#E6E2E0"/>
<path d="M416.616 -398.264L1041.87 171.516" stroke="#E6E2E0"/>
<path d="M-287.325 243.22L337.931 813" stroke="#E6E2E0"/>
<path d="M145.869 -151.54L771.125 418.24" stroke="#E6E2E0"/>
<path d="M-70.7275 45.8402L554.529 615.62" stroke="#E6E2E0"/>
<path d="M362.467 -348.919L987.723 220.861" stroke="#E6E2E0"/>
<path d="M-179.027 144.531L446.23 714.31" stroke="#E6E2E0"/>
<path d="M254.167 -250.23L879.424 319.55" stroke="#E6E2E0"/>
<path d="M37.5698 -52.8498L662.826 516.93" stroke="#E6E2E0"/>
<path d="M470.765 -447.608L1096.02 122.171" stroke="#E6E2E0"/>
<path d="M-385.472 332.659L239.784 902.439" stroke="#E6E2E0"/>
<path d="M47.7227 -62.102L672.979 507.678" stroke="#E6E2E0"/>
<path d="M-168.874 135.278L456.382 705.058" stroke="#E6E2E0"/>
<path d="M264.321 -259.481L889.577 310.299" stroke="#E6E2E0"/>
<path d="M-277.173 233.968L348.084 803.748" stroke="#E6E2E0"/>
<path d="M156.022 -160.792L781.278 408.988" stroke="#E6E2E0"/>
<path d="M-60.5752 36.5885L564.681 606.368" stroke="#E6E2E0"/>
<path d="M372.62 -358.171L997.876 211.609" stroke="#E6E2E0"/>
<path d="M-331.321 283.312L293.935 853.092" stroke="#E6E2E0"/>
<path d="M101.873 -111.447L727.129 458.333" stroke="#E6E2E0"/>
<path d="M-114.725 85.934L510.531 655.714" stroke="#E6E2E0"/>
<path d="M318.47 -308.826L943.727 260.953" stroke="#E6E2E0"/>
<path d="M-223.023 184.623L402.233 754.403" stroke="#E6E2E0"/>
<path d="M210.171 -210.138L835.428 359.642" stroke="#E6E2E0"/>
<path d="M-6.42676 -12.757L618.83 557.023" stroke="#E6E2E0"/>
<path d="M426.769 -407.516L1052.03 162.264" stroke="#E6E2E0"/>
<path d="M-358.396 307.985L266.86 877.765" stroke="#E6E2E0"/>
<path d="M74.7969 -86.7741L700.053 483.006" stroke="#E6E2E0"/>
<path d="M-141.8 110.606L483.457 680.386" stroke="#E6E2E0"/>
<path d="M291.395 -284.153L916.652 285.626" stroke="#E6E2E0"/>
<path d="M-250.098 209.296L375.158 779.076" stroke="#E6E2E0"/>
<path d="M183.096 -185.464L808.352 384.315" stroke="#E6E2E0"/>
<path d="M-33.5005 11.916L591.756 581.696" stroke="#E6E2E0"/>
<path d="M399.694 -382.843L1024.95 186.936" stroke="#E6E2E0"/>
<path d="M-304.248 258.641L321.009 828.421" stroke="#E6E2E0"/>
<path d="M128.947 -136.12L754.203 433.66" stroke="#E6E2E0"/>
<path d="M-87.6494 61.2604L537.607 631.04" stroke="#E6E2E0"/>
<path d="M345.544 -333.498L970.801 236.281" stroke="#E6E2E0"/>
<path d="M-195.949 159.951L429.307 729.731" stroke="#E6E2E0"/>
<path d="M237.245 -234.809L862.502 334.97" stroke="#E6E2E0"/>
<path d="M20.6475 -37.4301L645.904 532.35" stroke="#E6E2E0"/>
<path d="M453.843 -432.188L1079.1 137.591" stroke="#E6E2E0"/>
<path d="M-371.935 320.323L253.321 890.103" stroke="#E6E2E0"/>
<path d="M61.2598 -74.4386L686.516 495.341" stroke="#E6E2E0"/>
<path d="M-155.336 122.942L469.92 692.722" stroke="#E6E2E0"/>
<path d="M277.858 -271.818L903.114 297.962" stroke="#E6E2E0"/>
<path d="M-263.635 221.631L361.622 791.411" stroke="#E6E2E0"/>
<path d="M169.559 -173.128L794.816 396.652" stroke="#E6E2E0"/>
<path d="M-47.0381 24.2525L578.218 594.032" stroke="#E6E2E0"/>
<path d="M386.157 -370.507L1011.41 199.273" stroke="#E6E2E0"/>
<path d="M-317.785 270.977L307.472 840.757" stroke="#E6E2E0"/>
<path d="M115.409 -123.784L740.666 445.996" stroke="#E6E2E0"/>
<path d="M-101.188 73.5975L524.069 643.377" stroke="#E6E2E0"/>
<path d="M332.007 -321.162L957.264 248.617" stroke="#E6E2E0"/>
<path d="M-209.486 172.287L415.771 742.067" stroke="#E6E2E0"/>
<path d="M223.708 -222.473L848.965 347.307" stroke="#E6E2E0"/>
<path d="M7.11035 -25.0924L632.367 544.687" stroke="#E6E2E0"/>
<path d="M440.306 -419.852L1065.56 149.928" stroke="#E6E2E0"/>
<path d="M-344.859 295.649L280.397 865.429" stroke="#E6E2E0"/>
<path d="M88.335 -99.11L713.591 470.67" stroke="#E6E2E0"/>
<path d="M-128.262 98.2694L496.995 668.049" stroke="#E6E2E0"/>
<path d="M304.932 -296.49L930.189 273.29" stroke="#E6E2E0"/>
<path d="M-236.561 196.959L388.696 766.739" stroke="#E6E2E0"/>
<path d="M196.634 -197.8L821.891 371.979" stroke="#E6E2E0"/>
<path d="M-19.9634 -0.420044L605.293 569.36" stroke="#E6E2E0"/>
<path d="M413.231 -395.179L1038.49 174.6" stroke="#E6E2E0"/>
<path d="M-290.71 246.305L334.546 816.085" stroke="#E6E2E0"/>
<path d="M142.485 -148.456L767.741 421.324" stroke="#E6E2E0"/>
<path d="M-74.1113 48.924L551.145 618.704" stroke="#E6E2E0"/>
<path d="M359.082 -345.835L984.338 223.945" stroke="#E6E2E0"/>
<path d="M-182.411 147.614L442.845 717.394" stroke="#E6E2E0"/>
<path d="M250.782 -247.145L876.039 322.634" stroke="#E6E2E0"/>
<path d="M34.1855 -49.766L659.442 520.014" stroke="#E6E2E0"/>
<path d="M467.38 -444.524L1092.64 125.255" stroke="#E6E2E0"/>
<path d="M-378.704 326.491L246.553 896.271" stroke="#E6E2E0"/>
<path d="M54.4922 -68.2701L679.749 501.51" stroke="#E6E2E0"/>
<path d="M-162.105 129.11L463.151 698.89" stroke="#E6E2E0"/>
<path d="M271.088 -265.65L896.345 304.13" stroke="#E6E2E0"/>
<path d="M-270.404 227.8L354.853 797.58" stroke="#E6E2E0"/>
<path d="M162.79 -166.96L788.046 402.82" stroke="#E6E2E0"/>
<path d="M-53.8071 30.421L571.449 600.201" stroke="#E6E2E0"/>
<path d="M379.388 -364.339L1004.64 205.44" stroke="#E6E2E0"/>
<path d="M-324.553 277.145L300.703 846.925" stroke="#E6E2E0"/>
<path d="M108.64 -117.615L733.897 452.165" stroke="#E6E2E0"/>
<path d="M-107.956 79.7655L517.3 649.545" stroke="#E6E2E0"/>
<path d="M325.238 -314.994L950.495 254.786" stroke="#E6E2E0"/>
<path d="M-216.254 178.455L409.002 748.235" stroke="#E6E2E0"/>
<path d="M216.939 -216.305L842.195 353.475" stroke="#E6E2E0"/>
<path d="M0.342285 -18.925L625.599 550.855" stroke="#E6E2E0"/>
<path d="M433.537 -413.684L1058.79 156.095" stroke="#E6E2E0"/>
<path d="M-351.628 301.817L273.629 871.597" stroke="#E6E2E0"/>
<path d="M81.5659 -92.942L706.822 476.838" stroke="#E6E2E0"/>
<path d="M-135.031 104.438L490.226 674.218" stroke="#E6E2E0"/>
<path d="M298.164 -290.322L923.421 279.458" stroke="#E6E2E0"/>
<path d="M-243.33 203.128L381.927 772.908" stroke="#E6E2E0"/>
<path d="M189.865 -191.633L815.122 378.147" stroke="#E6E2E0"/>
<path d="M-26.731 5.74747L598.526 575.527" stroke="#E6E2E0"/>
<path d="M406.463 -389.012L1031.72 180.768" stroke="#E6E2E0"/>
<path d="M-297.479 252.472L327.778 822.252" stroke="#E6E2E0"/>
<path d="M135.715 -142.287L760.972 427.492" stroke="#E6E2E0"/>
<path d="M-80.8813 55.093L544.375 624.873" stroke="#E6E2E0"/>
<path d="M352.313 -339.667L977.57 230.113" stroke="#E6E2E0"/>
<path d="M-189.18 153.782L436.077 723.562" stroke="#E6E2E0"/>
<path d="M244.015 -240.978L869.271 328.802" stroke="#E6E2E0"/>
<path d="M27.4165 -43.5981L652.673 526.182" stroke="#E6E2E0"/>
<path d="M460.612 -438.357L1085.87 131.423" stroke="#E6E2E0"/>
<path d="M-365.167 314.155L260.09 883.935" stroke="#E6E2E0"/>
<path d="M68.0293 -80.6066L693.286 489.173" stroke="#E6E2E0"/>
<path d="M-148.568 116.774L476.689 686.554" stroke="#E6E2E0"/>
<path d="M284.627 -277.986L909.883 291.794" stroke="#E6E2E0"/>
<path d="M-256.867 215.464L368.39 785.244" stroke="#E6E2E0"/>
<path d="M176.328 -179.295L801.585 390.484" stroke="#E6E2E0"/>
<path d="M-40.2686 18.084L584.988 587.864" stroke="#E6E2E0"/>
<path d="M392.925 -376.675L1018.18 193.104" stroke="#E6E2E0"/>
<path d="M-311.017 264.809L314.24 834.589" stroke="#E6E2E0"/>
<path d="M122.179 -129.952L747.435 439.828" stroke="#E6E2E0"/>
<path d="M-94.4185 67.429L530.838 637.209" stroke="#E6E2E0"/>
<path d="M338.776 -327.33L964.033 242.449" stroke="#E6E2E0"/>
<path d="M-202.717 166.119L422.539 735.899" stroke="#E6E2E0"/>
<path d="M230.478 -228.641L855.734 341.139" stroke="#E6E2E0"/>
<path d="M13.8794 -31.262L639.136 538.518" stroke="#E6E2E0"/>
<path d="M447.074 -426.02L1072.33 143.759" stroke="#E6E2E0"/>
<path d="M-338.091 289.481L287.166 859.261" stroke="#E6E2E0"/>
<path d="M95.103 -105.279L720.36 464.501" stroke="#E6E2E0"/>
<path d="M-121.493 92.1015L503.763 661.881" stroke="#E6E2E0"/>
<path d="M311.701 -302.658L936.958 267.122" stroke="#E6E2E0"/>
<path d="M-229.792 190.791L395.465 760.571" stroke="#E6E2E0"/>
<path d="M203.402 -203.968L828.659 365.812" stroke="#E6E2E0"/>
<path d="M-13.1953 -6.58896L612.061 563.191" stroke="#E6E2E0"/>
<path d="M420 -401.348L1045.26 168.432" stroke="#E6E2E0"/>
<path d="M-283.941 240.136L341.315 809.916" stroke="#E6E2E0"/>
<path d="M149.252 -154.624L774.509 415.156" stroke="#E6E2E0"/>
<path d="M-67.3438 42.7565L557.913 612.536" stroke="#E6E2E0"/>
<path d="M365.851 -352.003L991.107 217.777" stroke="#E6E2E0"/>
<path d="M-175.643 141.447L449.613 711.227" stroke="#E6E2E0"/>
<path d="M257.552 -253.313L882.808 316.466" stroke="#E6E2E0"/>
<path d="M40.9536 -55.9335L666.21 513.846" stroke="#E6E2E0"/>
<path d="M474.149 -450.693L1099.41 119.087" stroke="#E6E2E0"/>
</g>
<defs>
<clipPath id="clip0_262_6348">
<rect width="720" height="452" fill="white"/>
</clipPath>
</defs>
</svg>
